<?xml version="1.0" encoding="UTF-8" standalone="no"?><!DOCTYPE svg PUBLIC "-//W3C//DTD SVG 1.1//EN" "http://www.w3.org/Graphics/SVG/1.1/DTD/svg11.dtd"><svg width="100%" height="100%" viewBox="0 0 50 50" version="1.1" xmlns="http://www.w3.org/2000/svg" xmlns:xlink="http://www.w3.org/1999/xlink" xml:space="preserve" xmlns:serif="http://www.serif.com/" style="fill-rule:evenodd;clip-rule:evenodd;stroke-linejoin:round;stroke-miterlimit:1.41421;"><g id="Layer1"><path id="outer" d="M25,0c13.798,0 25,11.202 25,25c0,13.798 -11.202,25 -25,25c-13.798,0 -25,-11.202 -25,-25c0,-13.798 11.202,-25 25,-25Zm0,5c11.038,0 20,8.962 20,20c0,11.038 -8.962,20 -20,20c-11.038,0 -20,-8.962 -20,-20c0,-11.038 8.962,-20 20,-20Z" style="fill:#daab26;fill-opacity:0.335714;"/></g><g id="Layer11" serif:id="Layer1"><path id="outer1" serif:id="outer" d="M25,0c8.501,0.011 16.788,4.355 21.461,12.178l-4.292,2.564c-3.739,-6.258 -10.368,-9.733 -17.169,-9.742l0,-5Z" style="fill:#daab26;"/></g></svg>