<?xml version="1.0" encoding="UTF-8" standalone="no"?><!DOCTYPE svg PUBLIC "-//W3C//DTD SVG 1.1//EN" "http://www.w3.org/Graphics/SVG/1.1/DTD/svg11.dtd"><svg width="100%" height="100%" viewBox="0 0 448 512" version="1.1" xmlns="http://www.w3.org/2000/svg" xmlns:xlink="http://www.w3.org/1999/xlink" xml:space="preserve" xmlns:serif="http://www.serif.com/" style="fill-rule:evenodd;clip-rule:evenodd;stroke-linejoin:round;stroke-miterlimit:1.41421;"><path d="M186.8,202.1l95.2,54.1l-95.2,54.1l0,-108.2Zm261.2,-122.1l0,352c0,26.5 -21.5,48 -48,48l-352,0c-26.5,0 -48,-21.5 -48,-48l0,-352c0,-26.5 21.5,-48 48,-48l352,0c26.5,0 48,21.5 48,48Zm-42,176.3c0,0 0,-59.6 -7.6,-88.2c-4.2,-15.8 -16.5,-28.2 -32.2,-32.4c-28.3,-7.7 -142.2,-7.7 -142.2,-7.7c0,0 -113.9,0 -142.2,7.7c-15.7,4.2 -28,16.6 -32.2,32.4c-7.6,28.5 -7.6,88.2 -7.6,88.2c0,0 0,59.6 7.6,88.2c4.2,15.8 16.5,27.7 32.2,31.9c28.3,7.6 142.2,7.6 142.2,7.6c0,0 113.9,0 142.2,-7.7c15.7,-4.2 28,-16.1 32.2,-31.9c7.6,-28.5 7.6,-88.1 7.6,-88.1Z" style="fill:#fff;fill-rule:nonzero;"/></svg>